<svg fill="none" height="600" viewBox="0 0 800 600" width="800" xmlns="http://www.w3.org/2000/svg" xmlns:xlink="http://www.w3.org/1999/xlink"><clipPath id="a"><path d="m85.1046 227h629.691v145.9h-629.691z"/></clipPath><g clip-path="url(#a)"><path clip-rule="evenodd" d="m545.578 346.531h-24.299v-93.38h24.299zm-57.423-93.38-15.582 62.544-18.305-62.544h-23.427l-18.197 62.544-15.69-62.544h-23.754l25.824 93.38h25.061l18.524-64.069 18.523 64.069h25.061l25.715-93.38zm-116.916 66.902c0-17.869-9.48-23.862-30.292-30.618-9.806-3.16-18.959-5.666-18.959-13.293 0-6.647 6.755-8.935 11.877-8.935 4.249 0 12.421.872 13.075 10.787h22.882c-.327-18.85-15.69-27.022-35.522-27.022-12.312 0-22.337 3.486-28.765 9.806-4.468 4.359-7.192 10.787-7.192 17.543 0 17.434 11.659 24.299 24.734 28.33 14.71 4.468 24.517 7.192 24.517 15.364 0 5.448-4.25 10.787-12.749 10.787-10.787 0-14.71-6.429-14.928-12.749h-23.208c0 21.466 18.087 29.42 38.136 29.42 25.497-.109 36.394-14.71 36.394-29.42zm260.092 0c0-20.593-14.928-26.041-33.125-31.49-8.717-2.615-16.562-4.903-16.562-12.53 0-6.647 6.756-8.935 11.877-8.935 4.358 0 12.422.872 12.966 10.787h22.991c-.327-18.741-15.69-26.913-35.521-26.913-12.204 0-22.446 3.486-28.766 9.806-4.468 4.359-7.192 10.787-7.192 17.543 0 17.434 11.55 24.299 24.735 28.33 14.709 4.468 24.516 7.192 24.516 15.364 0 5.448-4.249 10.787-12.748 10.787-10.788 0-14.71-6.429-14.928-12.749h-23.209c0 21.466 18.088 29.42 38.137 29.42 25.497-.109 36.829-14.71 36.829-29.42zm83.464 0c0-20.593-15.036-26.041-33.124-31.49-8.717-2.615-16.562-4.903-16.562-12.53 0-6.647 6.755-8.935 11.877-8.935 4.249 0 12.421.872 13.075 10.787h22.991c-.436-18.741-15.908-26.913-35.739-26.913-12.204 0-22.447 3.486-28.875 9.806-4.468 4.359-7.192 10.787-7.192 17.543 0 17.434 11.55 24.299 24.735 28.33 14.709 4.468 24.516 7.192 24.516 15.364 0 5.448-4.25 10.787-12.749 10.787-10.787 0-14.709-6.429-14.927-12.749h-23.1c0 21.466 18.087 29.42 38.245 29.42 25.497-.109 36.829-14.71 36.829-29.42zm-469.952 52.847h-159.7384l117.0254-145.9h78.561zm-24.517-86.407v-31.381h-26.913v31.381h-31.381v26.914h31.381v31.381h26.913v-31.381h31.49v-26.914z" fill="#df211d" fill-rule="evenodd"/></g></svg>